<svg xmlns="http://www.w3.org/2000/svg" width="24" height="24" fill="none" viewBox="0 0 24 24" class="icon-md" style="color: rgb(118, 208, 235);"><path fill="currentColor" fill-rule="evenodd" d="M13.997 3.39A2.5 2.5 0 0 1 17.2 2.103l2.203.882a2.5 2.5 0 0 1 1.342 3.369L19.063 10H20a1 1 0 0 1 1 1v8a3 3 0 0 1-3 3H6a3 3 0 0 1-3-3v-8a1 1 0 0 1 .992-1l-.149-.101-.03-.022c-1.254-.924-1.016-2.864.425-3.458l2.12-.874.724-2.176c.492-1.479 2.41-1.851 3.42-.665L11.99 4.45l1.521.01zm1.513 1.506a2 2 0 0 1 .461 2.618l-1.144 1.861v.045a1.3 1.3 0 0 0 .044.278 1 1 0 0 1 .047.302h1.942l2.07-4.485a.5.5 0 0 0-.268-.673l-2.203-.882a.5.5 0 0 0-.641.258zM12.889 10a3.3 3.3 0 0 1-.06-.499c-.01-.236-.004-.69.237-1.081l1.202-1.954-2.293-.016a2 2 0 0 1-1.51-.704L8.98 4l-.725 2.176A2 2 0 0 1 7.12 7.394L5 8.267l2.063 1.407c.129.087.23.2.303.326zM5 12v7a1 1 0 0 0 1 1h12a1 1 0 0 0 1-1v-7zm4.5 2.5a1 1 0 0 1 1-1h3a1 1 0 1 1 0 2h-3a1 1 0 0 1-1-1" clip-rule="evenodd"></path></svg>