<svg xmlns="http://www.w3.org/2000/svg" width="24" height="24" fill="none" viewBox="0 0 24 24" className="icon-md" style="color: rgb(226, 197, 65);"><path fill="currentColor" fill-rule="evenodd" d="M12 3C8.415 3 5.5 5.923 5.5 9.538A6.54 6.54 0 0 0 8.425 15h7.15A6.54 6.54 0 0 0 18.5 9.538C18.5 5.923 15.585 3 12 3m2.865 14h-5.73v1h5.73zm-1.133 3h-3.464a2 2 0 0 0 3.464 0m-5.606 0a4.002 4.002 0 0 0 7.748 0 1 1 0 0 0 .991-1v-2.46A8.54 8.54 0 0 0 20.5 9.539C20.5 4.828 16.7 1 12 1S3.5 4.828 3.5 9.538a8.54 8.54 0 0 0 3.635 7.003V19a1 1 0 0 0 .991 1" clip-rule="evenodd"></path></svg>