<svg xmlns="http://www.w3.org/2000/svg" width="26" height="24" fill="none" viewBox="0 0 26 24" className="icon-md" style='color: rgb(118, 208, 235);'><path fill="currentColor" fill-rule="evenodd" d="M13.454 4.105a1 1 0 0 0-.909 0L2.987 8.982 2.077 7.2l9.56-4.877a3 3 0 0 1 2.726 0l9.56 4.877A1.98 1.98 0 0 1 25 9.22V15a1 1 0 1 1-2 0v-3.784l-2.033.995v4.094a3 3 0 0 1-1.578 2.642l-4.967 2.673a3 3 0 0 1-2.844 0l-4.967-2.673a3 3 0 0 1-1.578-2.642v-4.094l-2.927-1.433C.626 10.053.61 7.949 2.077 7.2l.91 1.782 9.573 4.689a1 1 0 0 0 .88 0L23 8.989v-.014zm-6.42 9.086v3.114a1 1 0 0 0 .525.88l4.967 2.674a1 1 0 0 0 .948 0l4.967-2.673a1 1 0 0 0 .526-.88V13.19l-4.647 2.276a3 3 0 0 1-2.64 0z" clip-rule="evenodd"></path></svg>