<svg xmlns="http://www.w3.org/2000/svg" width="24" height="24" fill="none" viewBox="0 0 24 24" className="icon-md" style= 'color: rgb(118, 208, 235);'><path stroke="currentColor" stroke-linecap="round" stroke-linejoin="round" stroke-width="2" d="m4.5 17.5 3.069-3.118a2 2 0 0 1 2.783-.066L16.5 20"></path><path stroke="currentColor" stroke-linecap="round" stroke-linejoin="round" stroke-width="2" d="M19 12h-.62a3 3 0 0 1-2.278-1.048l-4.204-4.904A3 3 0 0 0 9.62 5H6a2 2 0 0 0-2 2v11a2 2 0 0 0 2 2h12a2 2 0 0 0 2-2v-1"></path><path stroke="currentColor" stroke-linecap="round" stroke-linejoin="round" stroke-width="2" d="M19 5h-.62a3 3 0 0 0-2.278 1.048L14 8.5"></path><circle cx="8.5" cy="9.5" r="1.5" fill="currentColor"></circle><path fill="currentColor" d="M18 14v-4a.5.5 0 0 1 .8-.4l2.667 2a.5.5 0 0 1 0 .8l-2.667 2a.5.5 0 0 1-.8-.4M18 7V3a.5.5 0 0 1 .8-.4l2.667 2a.5.5 0 0 1 0 .8l-2.667 2A.5.5 0 0 1 18 7"></path></svg>